<svg xmlns="http://www.w3.org/2000/svg" width="48" height="48" fill="none" viewBox="0 0 48 48"><path fill="#48AAFF" d="M27.7332 5.33398H13.7332C12.743 5.33398 11.0452 5.54249 10.1601 6.4275C9.27505 7.3125 9.06665 9.0105 9.06665 10.0007V38.934C9.06665 39.9242 9.45995 40.8737 10.1601 41.5738C10.8602 42.274 11.8097 42.6673 12.7999 42.6673H35.2C36.1902 42.6673 37.1397 42.274 37.8398 41.5738C38.54 40.8737 38.9333 39.9242 38.9333 38.934V16.534L27.7332 5.33398Z"/><path fill="#fff" fill-opacity=".25" d="M27.7333 5.33398V12.534C27.7333 14.7431 29.5242 16.534 31.7333 16.534H38.9333"/><g clip-path="url(#clip0_6339_81988)"><rect width="16" height="16" x="16" y="21" fill="#B1DAFF" rx="2"/><rect width="16" height="16" x="15.686" y="38" fill="#fff" rx="1" transform="rotate(-45 15.6863 38)"/><rect width="4" height="4" x="18" y="23" fill="#fff" rx="2"/></g><defs><clipPath id="clip0_6339_81988"><rect width="16" height="16" x="16" y="21" fill="#fff" rx="2"/></clipPath></defs></svg>