<svg xmlns="http://www.w3.org/2000/svg" width="56" height="56" fill="none" viewBox="0 0 56 56"><path fill="#5882FF" d="M31.7333 9.33398H17.7333C16.7431 9.33398 15.0452 9.54249 14.1601 10.4275C13.2751 11.3125 13.0667 13.0105 13.0667 14.0007V42.934C13.0667 43.9242 13.46 44.8737 14.1601 45.5738C14.8602 46.274 15.8098 46.6673 16.8 46.6673H39.2C40.1902 46.6673 41.1397 46.274 41.8398 45.5738C42.54 44.8737 42.9333 43.9242 42.9333 42.934V20.534L31.7333 9.33398Z"/><path fill="#fff" fill-opacity=".25" d="M31.7333 9.33398V16.534C31.7333 18.7431 33.5242 20.534 35.7333 20.534H42.9333"/><path fill="#fff" d="M29 26H21C20.4477 26 20 26.4477 20 27C20 27.5523 20.4477 28 21 28H29C29.5523 28 30 27.5523 30 27C30 26.4477 29.5523 26 29 26Z"/><path fill="#fff" d="M35 32H21C20.4477 32 20 32.4477 20 33C20 33.5523 20.4477 34 21 34H35C35.5523 34 36 33.5523 36 33C36 32.4477 35.5523 32 35 32Z"/><path fill="#fff" d="M35 38H21C20.4477 38 20 38.4477 20 39C20 39.5523 20.4477 40 21 40H35C35.5523 40 36 39.5523 36 39C36 38.4477 35.5523 38 35 38Z"/></svg>