<svg xmlns="http://www.w3.org/2000/svg" viewBox="0 0 16 16" fill="currentColor">
  <path d="M11.2 8.4c-.3-.1-.5 0-.6.2-.1.3.1.5.3.6.5.2 1 .1 1.3-.2.1-.1.1-.3 0-.4-.2-.2-.6-.2-1-.2zm-1.5.3c-.1 0-.2.1-.2.2 0 .2.1.3.2.3.4.1.8 0 1.1-.2.1-.1.1-.2 0-.3-.1-.1-.3-.1-.4 0-.2.1-.5.1-.7 0zM8 1C4.1 1 1 4.1 1 8s3.1 7 7 7 7-3.1 7-7-3.1-7-7-7zm3.8 10.5c-.4.3-1 .5-1.6.5-.4 0-.8-.1-1.1-.2-.3.2-.7.3-1.1.3-.6 0-1.1-.2-1.5-.6-.4-.4-.6-.9-.6-1.5 0-.3.1-.5.2-.8-.5-.4-.8-1-.8-1.6 0-.4.1-.7.3-1-.2-.5-.2-1 0-1.5.3-.7.9-1.1 1.6-1.3.5-.6 1.2-1 2-1 .3 0 .5 0 .8.1.4-.3.9-.4 1.4-.4.8 0 1.5.4 1.9 1 .4.6.5 1.3.3 2 .3.4.5.9.5 1.4 0 .8-.3 1.5-.8 2 .1.3.1.6 0 .9-.1.7-.5 1.3-1.1 1.7-.1 0-.3.1-.4 0z"/>
</svg>
