<svg xmlns="http://www.w3.org/2000/svg" width="20" height="20" fill="none" viewBox="0 0 20 20"><rect width="16.364" height=".455" x="1.818" y="1.591" fill="#D5D5D9" rx=".227"/><rect width="16.364" height=".455" x="1.818" y="7.045" fill="#D5D5D9" rx=".227"/><rect width="16.364" height=".455" x="1.818" y="12.5" fill="#D5D5D9" rx=".227"/><rect width="1.818" height="1.818" x="14.773" y="3.182" fill="#5C85FF" rx=".909"/><rect width="1.818" height="1.818" x="10.682" y="4.091" fill="#5C85FF" rx=".909"/><rect width="1.818" height="1.818" x="12.955" y="6.591" fill="#5C85FF" rx=".909"/><rect width="1.818" height="1.818" x="11.591" y="10.227" fill="#85A3FF" rx=".909"/><rect width="1.818" height="1.818" x="8.182" y="6.818" fill="#85A3FF" rx=".909"/><rect width="1.818" height="1.818" x="7.727" y="10.227" fill="#ADC2FF" rx=".909"/><rect width="1.818" height="1.818" x="4.545" y="8.409" fill="#ADC2FF" rx=".909"/><rect width="1.818" height="1.818" x="3.636" y="12.045" fill="#D6E0FF" rx=".909"/><rect width="1.818" height="1.818" x="2.727" y="15.682" fill="#D6E0FF" rx=".909"/><rect width="1.818" height="1.818" x="6.818" y="14.545" fill="#D6E0FF" rx=".909"/><rect width="1.818" height="1.818" x="10.682" y="14.545" fill="#ADC2FF" rx=".909"/><rect width="16.364" height=".455" x="1.818" y="17.955" fill="#D5D5D9" rx=".227"/></svg>