<svg xmlns="http://www.w3.org/2000/svg" width="16" height="16" viewBox="0 0 16 16" fill="none">
  <path fill-rule="evenodd" clip-rule="evenodd" d="M3.33333 2C2.59695 2 2 2.59695 2 3.33333V6H7.33333V2H3.33333ZM8.66667 2V6H14V3.33333C14 2.59695 13.403 2 12.6667 2H8.66667ZM14 7.33333H8.66667V8.66667H14V7.33333ZM14 10H8.66667V14H12.6667C13.403 14 14 13.403 14 12.6667V10ZM7.33333 14V10H2V12.6667C2 13.403 2.59695 14 3.33333 14H7.33333ZM2 8.66667H7.33333V7.33333H2V8.66667Z" fill="currentColor"/>
</svg>
