<svg xmlns="http://www.w3.org/2000/svg" width="214" height="145" fill="none" viewBox="0 0 214 145"><g filter="url(#filter0_dd_629_51670)"><g clip-path="url(#clip0_629_51670)"><rect width="190" height="120" x="12" y=".5" fill="#fff" rx="8"/><g clip-path="url(#clip1_629_51670)"><mask id="path-3-inside-1_629_51670" fill="#fff"><path d="M12 0.5H52V120.5H12V0.5Z"/></mask><mask id="path-5-inside-2_629_51670" fill="#fff"><path d="M12 0.5H52V30.5H12V0.5Z"/></mask><path fill="#E7E7E9" d="M52 29.5H12V31.5H52V29.5Z" mask="url(#path-5-inside-2_629_51670)"/><rect width="4" height="4" x="16" y="34.5" fill="#D5D5D9" rx="2"/><rect width="27" height="4" x="22" y="34.5" fill="#D5D5D9" rx="2"/></g><path fill="#E7E7E9" d="M51 0.5V120.5H53V0.5H51Z" mask="url(#path-3-inside-1_629_51670)"/><g clip-path="url(#clip2_629_51670)"><rect width="150" height="120" fill="#fff" transform="translate(52 0.5)"/><mask id="path-9-inside-3_629_51670" fill="#fff"><path d="M52 0.5H202V14.5H52V0.5Z"/></mask><path fill="#E7E7E9" d="M202 13.5H52V15.5H202V13.5Z" mask="url(#path-9-inside-3_629_51670)"/><rect width="24" height="4" x="56" y="5.5" fill="#D5D5D9" rx="2"/><rect width="40" height="8" x="107" y="3.5" fill="#D5D5D9" rx="2"/><rect width="19" height="6" x="108" y="4.5" fill="#fff" rx="2"/><rect width="19" height="6" x="127" y="4.5" fill="#D5D5D9" rx="2"/><mask id="path-15-inside-4_629_51670" fill="#fff"><path d="M52 14.5H202V24.5H52V14.5Z"/></mask><path fill="#E7E7E9" d="M202 23.5H52V25.5H202V23.5Z" mask="url(#path-15-inside-4_629_51670)"/><rect width="9" height="4" x="56" y="17.5" fill="#E7E7E9" rx="2"/><rect width="9" height="4" x="67" y="17.5" fill="#E7E7E9" rx="2"/><rect width="9" height="4" x="78" y="17.5" fill="#E7E7E9" rx="2"/></g></g><rect width="189" height="119" x="12.5" y="1" stroke="#E7E7E9" rx="7.5"/></g><defs><filter id="filter0_dd_629_51670" width="214" height="144" x="0" y=".5" color-interpolation-filters="sRGB" filterUnits="userSpaceOnUse"><feFlood flood-opacity="0" result="BackgroundImageFix"/><feColorMatrix in="SourceAlpha" result="hardAlpha" type="matrix" values="0 0 0 0 0 0 0 0 0 0 0 0 0 0 0 0 0 0 127 0"/><feMorphology in="SourceAlpha" operator="erode" radius="2" result="effect1_dropShadow_629_51670"/><feOffset dy="4"/><feGaussianBlur stdDeviation="3"/><feComposite in2="hardAlpha" operator="out"/><feColorMatrix type="matrix" values="0 0 0 0 0.2 0 0 0 0 0.4 0 0 0 0 1 0 0 0 0.08 0"/><feBlend in2="BackgroundImageFix" mode="normal" result="effect1_dropShadow_629_51670"/><feColorMatrix in="SourceAlpha" result="hardAlpha" type="matrix" values="0 0 0 0 0 0 0 0 0 0 0 0 0 0 0 0 0 0 127 0"/><feMorphology in="SourceAlpha" operator="erode" radius="4" result="effect2_dropShadow_629_51670"/><feOffset dy="12"/><feGaussianBlur stdDeviation="8"/><feComposite in2="hardAlpha" operator="out"/><feColorMatrix type="matrix" values="0 0 0 0 0.2 0 0 0 0 0.4 0 0 0 0 1 0 0 0 0.12 0"/><feBlend in2="effect1_dropShadow_629_51670" mode="normal" result="effect2_dropShadow_629_51670"/><feBlend in="SourceGraphic" in2="effect2_dropShadow_629_51670" mode="normal" result="shape"/></filter><clipPath id="clip0_629_51670"><rect width="190" height="120" x="12" y=".5" fill="#fff" rx="8"/></clipPath><clipPath id="clip1_629_51670"><path fill="#fff" d="M12 0.5H52V120.5H12V0.5Z"/></clipPath><clipPath id="clip2_629_51670"><rect width="150" height="120" fill="#fff" transform="translate(52 0.5)"/></clipPath></defs></svg>