<svg xmlns="http://www.w3.org/2000/svg" width="24" height="32" fill="none" viewBox="0 0 24 32"><g clip-path="url(#clip0_881_27842)"><mask id="mask0_881_27842" width="24" height="32" x="0" y="0" maskUnits="userSpaceOnUse" style="mask-type:luminance"><path fill="#fff" d="M14.8258 0.457703H2.81581C1.65014 0.457703 0.696411 1.41143 0.696411 2.57711V29.4229C0.696411 30.5885 1.65014 31.5423 2.81581 31.5423H21.184C22.3496 31.5423 23.3034 30.5885 23.3034 29.4229V8.93531L14.8258 0.457703Z"/></mask><g mask="url(#mask0_881_27842)"><path fill="#0F9D58" d="M14.8258 0.457703H2.81581C1.65014 0.457703 0.696411 1.41143 0.696411 2.57711V29.4229C0.696411 30.5885 1.65014 31.5423 2.81581 31.5423H21.184C22.3496 31.5423 23.3034 30.5885 23.3034 29.4229V8.93531L18.3581 5.40298L14.8258 0.457703Z"/></g><mask id="mask1_881_27842" width="24" height="32" x="0" y="0" maskUnits="userSpaceOnUse" style="mask-type:luminance"><path fill="#fff" d="M14.8258 0.457703H2.81581C1.65014 0.457703 0.696411 1.41143 0.696411 2.57711V29.4229C0.696411 30.5885 1.65014 31.5423 2.81581 31.5423H21.184C22.3496 31.5423 23.3034 30.5885 23.3034 29.4229V8.93531L14.8258 0.457703Z"/></mask><g mask="url(#mask1_881_27842)"><path fill="#F1F1F1" d="M6.34814 15.6467V25.8905H17.6516V15.6467H6.34814ZM11.2934 24.4776H7.76108V22.7114H11.2934V24.4776ZM11.2934 21.6517H7.76108V19.8855H11.2934V21.6517ZM11.2934 18.8258H7.76108V17.0597H11.2934V18.8258ZM16.2387 24.4776H12.7064V22.7114H16.2387V24.4776ZM16.2387 21.6517H12.7064V19.8855H16.2387V21.6517ZM16.2387 18.8258H12.7064V17.0597H16.2387V18.8258Z"/></g><mask id="mask2_881_27842" width="24" height="32" x="0" y="0" maskUnits="userSpaceOnUse" style="mask-type:luminance"><path fill="#fff" d="M14.8258 0.457703H2.81581C1.65014 0.457703 0.696411 1.41143 0.696411 2.57711V29.4229C0.696411 30.5885 1.65014 31.5423 2.81581 31.5423H21.184C22.3496 31.5423 23.3034 30.5885 23.3034 29.4229V8.93531L14.8258 0.457703Z"/></mask><g mask="url(#mask2_881_27842)"><path fill="url(#paint0_linear_881_27842)" d="M15.4457 8.31537L23.3034 16.1713V8.93529L15.4457 8.31537Z"/></g><mask id="mask3_881_27842" width="24" height="32" x="0" y="0" maskUnits="userSpaceOnUse" style="mask-type:luminance"><path fill="#fff" d="M14.8258 0.457703H2.81581C1.65014 0.457703 0.696411 1.41143 0.696411 2.57711V29.4229C0.696411 30.5885 1.65014 31.5423 2.81581 31.5423H21.184C22.3496 31.5423 23.3034 30.5885 23.3034 29.4229V8.93531L14.8258 0.457703Z"/></mask><g mask="url(#mask3_881_27842)"><path fill="#87CEAC" d="M14.8258 0.457703V6.81591C14.8258 7.98688 15.7742 8.93531 16.9452 8.93531H23.3034L14.8258 0.457703Z"/></g><mask id="mask4_881_27842" width="24" height="32" x="0" y="0" maskUnits="userSpaceOnUse" style="mask-type:luminance"><path fill="#fff" d="M14.8258 0.457703H2.81581C1.65014 0.457703 0.696411 1.41143 0.696411 2.57711V29.4229C0.696411 30.5885 1.65014 31.5423 2.81581 31.5423H21.184C22.3496 31.5423 23.3034 30.5885 23.3034 29.4229V8.93531L14.8258 0.457703Z"/></mask><g mask="url(#mask4_881_27842)"><path fill="#fff" fill-opacity=".2" d="M2.81581 0.457703C1.65014 0.457703 0.696411 1.41143 0.696411 2.57711V2.75372C0.696411 1.58805 1.65014 0.63432 2.81581 0.63432H14.8258V0.457703H2.81581Z"/></g><mask id="mask5_881_27842" width="24" height="32" x="0" y="0" maskUnits="userSpaceOnUse" style="mask-type:luminance"><path fill="#fff" d="M14.8258 0.457703H2.81581C1.65014 0.457703 0.696411 1.41143 0.696411 2.57711V29.4229C0.696411 30.5885 1.65014 31.5423 2.81581 31.5423H21.184C22.3496 31.5423 23.3034 30.5885 23.3034 29.4229V8.93531L14.8258 0.457703Z"/></mask><g mask="url(#mask5_881_27842)"><path fill="#263238" fill-opacity=".2" d="M21.184 31.3657H2.81581C1.65014 31.3657 0.696411 30.4119 0.696411 29.2463V29.4229C0.696411 30.5886 1.65014 31.5423 2.81581 31.5423H21.184C22.3496 31.5423 23.3034 30.5886 23.3034 29.4229V29.2463C23.3034 30.4119 22.3496 31.3657 21.184 31.3657Z"/></g><mask id="mask6_881_27842" width="24" height="32" x="0" y="0" maskUnits="userSpaceOnUse" style="mask-type:luminance"><path fill="#fff" d="M14.8258 0.457703H2.81581C1.65014 0.457703 0.696411 1.41143 0.696411 2.57711V29.4229C0.696411 30.5885 1.65014 31.5423 2.81581 31.5423H21.184C22.3496 31.5423 23.3034 30.5885 23.3034 29.4229V8.93531L14.8258 0.457703Z"/></mask><g mask="url(#mask6_881_27842)"><path fill="#263238" fill-opacity=".1" d="M16.9452 8.93532C15.7742 8.93532 14.8258 7.98689 14.8258 6.81592V6.99254C14.8258 8.16351 15.7742 9.11194 16.9452 9.11194H23.3034V8.93532H16.9452Z"/></g><path fill="url(#paint1_radial_881_27842)" d="M14.8258 0.457703H2.81581C1.65014 0.457703 0.696411 1.41143 0.696411 2.57711V29.4229C0.696411 30.5885 1.65014 31.5423 2.81581 31.5423H21.184C22.3496 31.5423 23.3034 30.5885 23.3034 29.4229V8.93531L14.8258 0.457703Z"/></g><defs><linearGradient id="paint0_linear_881_27842" x1="408.372" x2="408.372" y1="75.767" y2="794.017" gradientUnits="userSpaceOnUse"><stop stop-color="#263238" stop-opacity=".2"/><stop offset="1" stop-color="#263238" stop-opacity=".02"/></linearGradient><radialGradient id="paint1_radial_881_27842" cx="0" cy="0" r="1" gradientTransform="translate(72.3164 61.8945) scale(3645.34 3645.34)" gradientUnits="userSpaceOnUse"><stop stop-color="#fff" stop-opacity=".1"/><stop offset="1" stop-color="#fff" stop-opacity="0"/></radialGradient><clipPath id="clip0_881_27842"><rect width="23.403" height="32" fill="#fff" transform="translate(0.298462)"/></clipPath></defs></svg>