<svg xmlns="http://www.w3.org/2000/svg" width="16" height="16" fill="none" viewBox="0 0 16 16"><g clip-path="url(#clip0_1_19)"><path stroke="#FA8231" stroke-linecap="round" stroke-linejoin="round" stroke-width="1.333" d="M3 10C4.10457 10 5 9.10457 5 8C5 6.89543 4.10457 6 3 6C1.89543 6 1 6.89543 1 8C1 9.10457 1.89543 10 3 10Z"/><path stroke="#FA8231" stroke-linecap="round" stroke-linejoin="round" stroke-width="1.333" d="M13 10C14.1046 10 15 9.10457 15 8C15 6.89543 14.1046 6 13 6C11.8954 6 11 6.89543 11 8C11 9.10457 11.8954 10 13 10Z"/><path stroke="#FA8231" stroke-linecap="round" stroke-linejoin="round" stroke-width="1.333" d="M9 15C10.1046 15 11 14.1046 11 13C11 11.8954 10.1046 11 9 11C7.89543 11 7 11.8954 7 13C7 14.1046 7.89543 15 9 15Z"/><path stroke="#FA8231" stroke-linecap="round" stroke-linejoin="round" stroke-width="1.333" d="M9 5C10.1046 5 11 4.10457 11 3C11 1.89543 10.1046 1 9 1C7.89543 1 7 1.89543 7 3C7 4.10457 7.89543 5 9 5Z"/><path stroke="#FA8231" stroke-linecap="round" stroke-linejoin="round" stroke-width="1.333" d="M11 8L5 8"/><path stroke="#FA8231" stroke-linecap="square" stroke-linejoin="round" stroke-width="1.333" d="M7 4L5 6"/><path stroke="#FA8231" stroke-linecap="square" stroke-linejoin="round" stroke-width="1.333" d="M7 12L5 10"/></g><defs><clipPath id="clip0_1_19"><rect width="16" height="16" fill="#fff"/></clipPath></defs></svg>