<svg xmlns="http://www.w3.org/2000/svg" width="16" height="16" fill="none" viewBox="0 0 16 16"><path stroke="currentColor" stroke-linecap="round" stroke-linejoin="round" stroke-width="1.333" d="M9.404 3.702a1.333 1.333 0 0 0 1.192 0l2.439-1.22A0.667 0.667 0 0 1 14 3.079v8.51a0.667 0.667 0 0 1-0.369 0.596l-3.035 1.518a1.333 1.333 0 0 1-1.192 0l-2.808-1.404a1.333 1.333 0 0 0-1.192 0l-2.439 1.22A0.667 0.667 0 0 1 2 12.921v-8.51a0.667 0.667 0 0 1 0.369-0.596l3.035-1.518a1.333 1.333 0 0 1 1.192 0z"/><path stroke="currentColor" stroke-linecap="round" stroke-linejoin="round" stroke-width="1.333" d="M10 3.843v10"/><path stroke="currentColor" stroke-linecap="round" stroke-linejoin="round" stroke-width="1.333" d="M6 2.157v10"/></svg>