<svg xmlns="http://www.w3.org/2000/svg" width="15" height="16" fill="none" viewBox="0 0 15 16"><g id="Group 146"><path id="Rectangle 9192" stroke="currentColor" stroke-linecap="round" stroke-width="1.33" d="M5.64617 9.44949L10.1972 4.89847C11.0069 4.08873 11.0069 2.77589 10.1972 1.96615V1.96615C9.38745 1.15641 8.07461 1.15641 7.26487 1.96615L1.25 7.98102"/><path id="Rectangle 9193" stroke="currentColor" stroke-linecap="round" stroke-width="1.33" d="M7.58284 13.5992L10.1626 11.0195L13.1834 7.9987C14.0247 7.15741 14.0247 5.79342 13.1834 4.95213V4.95213C12.3421 4.11085 10.9781 4.11085 10.1368 4.95213L5.61851 9.47043"/><path id="Rectangle 9194" stroke="currentColor" stroke-linecap="round" stroke-width="1.33" d="M8.45532 3.71486L7.15276 5.01742L4.10645 8.06373C3.27925 8.89092 3.27925 10.2321 4.10645 11.0593V11.0593C4.93364 11.8865 6.27478 11.8865 7.10198 11.0593L11.6458 6.51544"/><path id="Line 17" stroke="currentColor" stroke-linecap="round" stroke-width="1.33" d="M7.51895 14.0676L8.89563 15.5"/></g></svg>