<svg xmlns="http://www.w3.org/2000/svg" width="16" height="16" fill="none" viewBox="0 0 16 16"><g id="more-vertical"><path id="Vector" stroke="#374151" stroke-linecap="round" stroke-linejoin="round" stroke-width="1.333" d="M7.99998 13.3333C8.36817 13.3333 8.66665 13.0349 8.66665 12.6667C8.66665 12.2985 8.36817 12 7.99998 12C7.63179 12 7.33331 12.2985 7.33331 12.6667C7.33331 13.0349 7.63179 13.3333 7.99998 13.3333Z"/><path id="Vector_2" stroke="#374151" stroke-linecap="round" stroke-linejoin="round" stroke-width="1.333" d="M7.99998 8.66665C8.36817 8.66665 8.66665 8.36817 8.66665 7.99998C8.66665 7.63179 8.36817 7.33331 7.99998 7.33331C7.63179 7.33331 7.33331 7.63179 7.33331 7.99998C7.33331 8.36817 7.63179 8.66665 7.99998 8.66665Z"/><path id="Vector_3" stroke="#374151" stroke-linecap="round" stroke-linejoin="round" stroke-width="1.333" d="M7.99998 4.00002C8.36817 4.00002 8.66665 3.70154 8.66665 3.33335C8.66665 2.96516 8.36817 2.66669 7.99998 2.66669C7.63179 2.66669 7.33331 2.96516 7.33331 3.33335C7.33331 3.70154 7.63179 4.00002 7.99998 4.00002Z"/></g></svg>