<svg xmlns="http://www.w3.org/2000/svg" width="16" height="16" fill="none" viewBox="0 0 16 16"><path stroke="currentColor" stroke-linecap="round" stroke-linejoin="round" stroke-width="1.333" d="M2.5 14C1.67157 14 1 13.3284 1 12.5M4 11.5V3.5"/><path stroke="currentColor" stroke-linecap="round" stroke-linejoin="round" stroke-width="1.333" d="M10.5 14C11.3284 14 12 13.3284 12 12.5V8.5V4.5H13.5H15V3.5M10.5 14C9.67157 14 9 13.3284 9 12.5V11.5H1V12.5M10.5 14H2.5M5.5 2H13.5"/><path stroke="currentColor" stroke-linecap="round" stroke-linejoin="round" stroke-width="1.333" d="M4 3.5C4 2.67157 4.67157 2 5.5 2"/><path stroke="currentColor" stroke-linecap="round" stroke-linejoin="round" stroke-width="1.333" d="M15 3.5C15 2.67157 14.3284 2 13.5 2C12.6716 2 12 2.67157 12 3.5V4.5"/><path stroke="currentColor" stroke-linecap="round" stroke-linejoin="round" stroke-width="1.333" d="M7.00011 5.97858L6.00011 6.97858L7.00011 7.97858"/><path stroke="currentColor" stroke-linecap="round" stroke-linejoin="round" stroke-width="1.333" d="M8.99989 8.02142L9.99989 7.02142L8.99989 6.02142"/></svg>