<svg xmlns="http://www.w3.org/2000/svg" width="16" height="16" fill="none" viewBox="0 0 16 16"><g clip-path="url(#clip0_5805_73781)"><path stroke="currentColor" stroke-linecap="round" stroke-linejoin="round" stroke-width="1.333" d="M8 1L8 15"/><path stroke="currentColor" stroke-linecap="round" stroke-linejoin="round" stroke-width="1.333" d="M6 1.29999L7.76777 3.06775"/><path stroke="currentColor" stroke-linecap="round" stroke-linejoin="round" stroke-width="1.333" d="M10 1.29999L8.23223 3.06775"/><path stroke="currentColor" stroke-linecap="round" stroke-linejoin="round" stroke-width="1.333" d="M6 14.6978L7.76777 12.93"/><path stroke="currentColor" stroke-linecap="round" stroke-linejoin="round" stroke-width="1.333" d="M10 14.6978L8.23223 12.93"/><path stroke="currentColor" stroke-linecap="round" stroke-linejoin="round" stroke-width="1.333" d="M1.93784 11.5L14.0622 4.5"/><path stroke="currentColor" stroke-linecap="round" stroke-linejoin="round" stroke-width="1.333" d="M3.19763 13.082L3.84468 10.6672"/><path stroke="currentColor" stroke-linecap="round" stroke-linejoin="round" stroke-width="1.333" d="M1.19763 9.61798L3.61245 10.265"/><path stroke="currentColor" stroke-linecap="round" stroke-linejoin="round" stroke-width="1.333" d="M14.8005 6.38312L12.3857 5.73607"/><path stroke="currentColor" stroke-linecap="round" stroke-linejoin="round" stroke-width="1.333" d="M12.8005 2.91907L12.1534 5.33388"/><path stroke="currentColor" stroke-linecap="round" stroke-linejoin="round" stroke-width="1.333" d="M14.0622 11.5L1.93784 4.5"/><path stroke="currentColor" stroke-linecap="round" stroke-linejoin="round" stroke-width="1.333" d="M14.8024 9.61792L12.3876 10.265"/><path stroke="currentColor" stroke-linecap="round" stroke-linejoin="round" stroke-width="1.333" d="M12.8024 13.082L12.1554 10.6672"/><path stroke="currentColor" stroke-linecap="round" stroke-linejoin="round" stroke-width="1.333" d="M3.19955 2.91901L3.8466 5.33382"/><path stroke="currentColor" stroke-linecap="round" stroke-linejoin="round" stroke-width="1.333" d="M1.19955 6.38312L3.61437 5.73607"/></g><defs><clipPath id="clip0_5805_73781"><rect width="16" height="16" fill="#fff"/></clipPath></defs></svg>